<svg width="144" height="94" viewBox="0 0 144 94" fill="none" xmlns="http://www.w3.org/2000/svg">
<path d="M129.6 64C133.135 64 136.033 61.1276 135.68 57.6106C135.057 51.3979 133.527 45.2981 131.128 39.5083C127.912 31.7434 123.198 24.6881 117.255 18.7452C111.312 12.8022 104.257 8.08801 96.4917 4.87171C88.7269 1.65541 80.4046 -3.67377e-07 72 0C63.5954 3.67377e-07 55.2731 1.65541 47.5083 4.87171C39.7434 8.08801 32.6881 12.8022 26.7452 18.7452C20.8022 24.6881 16.088 31.7434 12.8717 39.5083C10.4735 45.2981 8.94309 51.3979 8.31973 57.6106C7.96686 61.1276 10.8654 64 14.4 64C17.9346 64 20.7588 61.1237 21.1995 57.6166C21.7688 53.0863 22.9427 48.6427 24.6974 44.4066C27.2704 38.1947 31.0418 32.5505 35.7961 27.7961C40.5505 23.0418 46.1947 19.2704 52.4066 16.6974C58.6185 14.1243 65.2763 12.8 72 12.8C78.7237 12.8 85.3815 14.1243 91.5934 16.6974C97.8053 19.2704 103.45 23.0418 108.204 27.7961C112.958 32.5505 116.73 38.1947 119.303 44.4066C121.057 48.6427 122.231 53.0862 122.801 57.6166C123.241 61.1236 126.065 64 129.6 64Z" fill="#E8E8E8"/>
<path d="M112.729 23.2707C115.229 20.7713 115.247 16.6905 112.511 14.4532C104.419 7.83682 94.8012 3.28163 84.4858 1.22977C72.071 -1.23968 59.2027 0.0277319 47.5083 4.87174C35.8138 9.71575 25.8183 17.9188 18.7859 28.4435C12.9427 37.1885 9.36322 47.21 8.31971 57.6105C7.96684 61.1274 10.8654 64 14.4 64C17.9346 64 20.7588 61.1236 21.1995 57.6165C22.1877 49.7521 24.9928 42.1937 29.4288 35.5548C35.0547 27.135 43.051 20.5726 52.4066 16.6974C61.7622 12.8222 72.0568 11.8083 81.9886 13.7838C89.8196 15.3415 97.1478 18.7026 103.408 23.5648C106.199 25.733 110.23 25.77 112.729 23.2707Z" fill="#CC0000"/>
<path fill-rule="evenodd" clip-rule="evenodd" d="M77.7232 60.1883L101.998 32.0009L74.3309 56.4689C73.6147 56.1669 72.8276 56 72.0015 56C68.6878 56 66.0015 58.6863 66.0015 62C66.0015 65.3137 68.6878 68 72.0015 68C75.3152 68 78.0015 65.3137 78.0015 62C78.0015 61.3686 77.904 60.7599 77.7232 60.1883Z" fill="#CC0000"/>
<path d="M8.7983 87.091V76.1819H9.49716V87.091H8.7983ZM10.9844 79.5654C10.9389 79.162 10.7514 78.8495 10.4219 78.6279C10.0923 78.4035 9.67756 78.2912 9.17756 78.2912C8.8196 78.2912 8.50994 78.3481 8.24858 78.4617C7.98722 78.5725 7.78409 78.7259 7.6392 78.9219C7.49716 79.1151 7.42614 79.3353 7.42614 79.5824C7.42614 79.7898 7.47443 79.9688 7.57102 80.1194C7.67045 80.2699 7.79972 80.3964 7.95881 80.4986C8.12074 80.5981 8.29403 80.6819 8.47869 80.75C8.66335 80.8154 8.84091 80.8694 9.01136 80.912L9.86364 81.1336C10.142 81.2018 10.4276 81.2941 10.7202 81.4106C11.0128 81.527 11.2841 81.6804 11.5341 81.8708C11.7841 82.0611 11.9858 82.2969 12.1392 82.5782C12.2955 82.8594 12.3736 83.1961 12.3736 83.5881C12.3736 84.0824 12.2457 84.5214 11.9901 84.9049C11.7372 85.2884 11.3693 85.591 10.8864 85.8125C10.4063 86.0341 9.82528 86.1449 9.14347 86.1449C8.49006 86.1449 7.92472 86.0412 7.44744 85.8339C6.97017 85.6265 6.59659 85.3324 6.3267 84.9518C6.05682 84.5682 5.90767 84.1137 5.87926 83.5881H7.20028C7.22585 83.9035 7.32813 84.1662 7.5071 84.3765C7.68892 84.5839 7.92045 84.7387 8.2017 84.841C8.4858 84.9404 8.79688 84.9901 9.13494 84.9901C9.5071 84.9901 9.83807 84.9319 10.1278 84.8154C10.4205 84.6961 10.6506 84.5313 10.8182 84.3211C10.9858 84.108 11.0696 83.8594 11.0696 83.5753C11.0696 83.3168 10.9957 83.1052 10.848 82.9404C10.7031 82.7756 10.5057 82.6393 10.2557 82.5313C10.0085 82.4233 9.72869 82.3282 9.41619 82.2458L8.38494 81.9645C7.68608 81.7742 7.1321 81.4944 6.72301 81.125C6.31676 80.7557 6.11364 80.2671 6.11364 79.6591C6.11364 79.1563 6.25 78.7174 6.52273 78.3424C6.79545 77.9674 7.16477 77.6762 7.63068 77.4688C8.09659 77.2586 8.62216 77.1535 9.20739 77.1535C9.7983 77.1535 10.3196 77.2571 10.7713 77.4645C11.2259 77.6719 11.5838 77.9574 11.8452 78.3211C12.1065 78.6819 12.2429 79.0966 12.2543 79.5654H10.9844ZM16.8661 86.1449C16.1928 86.1421 15.6175 85.9645 15.1403 85.6123C14.663 85.26 14.2979 84.7472 14.0451 84.0739C13.7923 83.4006 13.6658 82.5895 13.6658 81.6407C13.6658 80.6946 13.7923 79.8864 14.0451 79.216C14.3008 78.5455 14.6673 78.0341 15.1445 77.6819C15.6246 77.3296 16.1985 77.1535 16.8661 77.1535C17.5337 77.1535 18.1062 77.331 18.5835 77.6861C19.0607 78.0384 19.4258 78.5498 19.6786 79.2202C19.9343 79.8878 20.0621 80.6946 20.0621 81.6407C20.0621 82.5924 19.9357 83.4049 19.6829 84.0782C19.43 84.7486 19.065 85.2614 18.5877 85.6165C18.1104 85.9688 17.5366 86.1449 16.8661 86.1449ZM16.8661 85.0071C17.457 85.0071 17.9187 84.7188 18.2511 84.1421C18.5863 83.5654 18.7539 82.7316 18.7539 81.6407C18.7539 80.9162 18.6772 80.304 18.5238 79.804C18.3732 79.3012 18.1559 78.9205 17.8718 78.662C17.5906 78.4006 17.2553 78.2699 16.8661 78.2699C16.2781 78.2699 15.8164 78.5597 15.4812 79.1392C15.146 79.7188 14.9769 80.5526 14.9741 81.6407C14.9741 82.3679 15.0494 82.983 15.1999 83.4858C15.3533 83.9858 15.5707 84.3651 15.8519 84.6236C16.1332 84.8793 16.4712 85.0071 16.8661 85.0071Z" fill="#D1D1D1"/>
<path d="M60.5405 76.3637V88H58.4325V78.4148H58.3643L55.6428 80.1535V78.2216L58.5348 76.3637H60.5405ZM63.495 88V86.4773L67.5348 82.5171C67.9212 82.1269 68.2431 81.7803 68.5007 81.4773C68.7583 81.1743 68.9515 80.8807 69.0803 80.5966C69.209 80.3125 69.2734 80.0095 69.2734 79.6875C69.2734 79.3201 69.1901 79.0057 69.0234 78.7444C68.8568 78.4792 68.6276 78.2747 68.3359 78.1307C68.0443 77.9868 67.7128 77.9148 67.3416 77.9148C66.959 77.9148 66.6238 77.9944 66.3359 78.1535C66.0481 78.3088 65.8246 78.5303 65.6655 78.8182C65.5102 79.1061 65.4325 79.4489 65.4325 79.8466H63.4268C63.4268 79.108 63.5954 78.466 63.9325 77.9205C64.2696 77.375 64.7337 76.9527 65.3246 76.6535C65.9193 76.3542 66.6011 76.2046 67.37 76.2046C68.1503 76.2046 68.8359 76.3504 69.4268 76.6421C70.0178 76.9338 70.4761 77.3334 70.8018 77.841C71.1314 78.3485 71.2962 78.9281 71.2962 79.5796C71.2962 80.0152 71.2128 80.4432 71.0462 80.8637C70.8795 81.2841 70.5859 81.75 70.1655 82.2614C69.7488 82.7728 69.1636 83.3921 68.4098 84.1194L66.4041 86.1591V86.2387H71.4723V88H63.495ZM73.5462 88V76.3637H75.6541V81.7103H75.7962L80.3359 76.3637H82.9098L78.4098 81.5853L82.9496 88H80.4155L76.9439 83.0114L75.6541 84.5341V88H73.5462Z" fill="#191919"/>
<path d="M118.025 87.091V76.1819H118.724V87.091H118.025ZM120.211 79.5654C120.165 79.162 119.978 78.8495 119.648 78.6279C119.319 78.4035 118.904 78.2912 118.404 78.2912C118.046 78.2912 117.737 78.3481 117.475 78.4617C117.214 78.5725 117.011 78.7259 116.866 78.9219C116.724 79.1151 116.653 79.3353 116.653 79.5824C116.653 79.7898 116.701 79.9688 116.798 80.1194C116.897 80.2699 117.026 80.3964 117.185 80.4986C117.347 80.5981 117.521 80.6819 117.705 80.75C117.89 80.8154 118.067 80.8694 118.238 80.912L119.09 81.1336C119.369 81.2018 119.654 81.2941 119.947 81.4106C120.239 81.527 120.511 81.6804 120.761 81.8708C121.011 82.0611 121.212 82.2969 121.366 82.5782C121.522 82.8594 121.6 83.1961 121.6 83.5881C121.6 84.0824 121.472 84.5214 121.217 84.9049C120.964 85.2884 120.596 85.591 120.113 85.8125C119.633 86.0341 119.052 86.1449 118.37 86.1449C117.717 86.1449 117.151 86.0412 116.674 85.8339C116.197 85.6265 115.823 85.3324 115.553 84.9518C115.283 84.5682 115.134 84.1137 115.106 83.5881H116.427C116.452 83.9035 116.555 84.1662 116.734 84.3765C116.915 84.5839 117.147 84.7387 117.428 84.841C117.712 84.9404 118.023 84.9901 118.362 84.9901C118.734 84.9901 119.065 84.9319 119.354 84.8154C119.647 84.6961 119.877 84.5313 120.045 84.3211C120.212 84.108 120.296 83.8594 120.296 83.5753C120.296 83.3168 120.222 83.1052 120.075 82.9404C119.93 82.7756 119.732 82.6393 119.482 82.5313C119.235 82.4233 118.955 82.3282 118.643 82.2458L117.612 81.9645C116.913 81.7742 116.359 81.4944 115.95 81.125C115.543 80.7557 115.34 80.2671 115.34 79.6591C115.34 79.1563 115.477 78.7174 115.749 78.3424C116.022 77.9674 116.391 77.6762 116.857 77.4688C117.323 77.2586 117.849 77.1535 118.434 77.1535C119.025 77.1535 119.546 77.2571 119.998 77.4645C120.452 77.6719 120.81 77.9574 121.072 78.3211C121.333 78.6819 121.469 79.0966 121.481 79.5654H120.211ZM123.054 86V85.0455L126.007 81.9858C126.323 81.6535 126.583 81.3623 126.787 81.1123C126.995 80.8594 127.15 80.6194 127.252 80.3921C127.354 80.1648 127.405 79.9233 127.405 79.6677C127.405 79.3779 127.337 79.1279 127.201 78.9177C127.064 78.7046 126.878 78.5412 126.642 78.4276C126.407 78.3111 126.141 78.2529 125.846 78.2529C125.533 78.2529 125.26 78.3168 125.027 78.4446C124.794 78.5725 124.615 78.7529 124.49 78.9858C124.365 79.2188 124.303 79.4915 124.303 79.804H123.046C123.046 79.2728 123.168 78.8083 123.412 78.4106C123.657 78.0128 123.992 77.7046 124.418 77.4858C124.844 77.2643 125.328 77.1535 125.871 77.1535C126.419 77.1535 126.902 77.2628 127.32 77.4816C127.74 77.6975 128.069 77.9929 128.304 78.3679C128.54 78.7401 128.658 79.1606 128.658 79.6293C128.658 79.9532 128.597 80.2699 128.475 80.5796C128.355 80.8893 128.147 81.2344 127.848 81.6151C127.55 81.9929 127.135 82.4518 126.604 82.9915L124.87 84.8069V84.8708H128.799V86H123.054ZM133.452 86.1449C132.779 86.1421 132.203 85.9645 131.726 85.6123C131.249 85.26 130.884 84.7472 130.631 84.0739C130.378 83.4006 130.252 82.5895 130.252 81.6407C130.252 80.6946 130.378 79.8864 130.631 79.216C130.887 78.5455 131.253 78.0341 131.73 77.6819C132.211 77.3296 132.784 77.1535 133.452 77.1535C134.12 77.1535 134.692 77.331 135.169 77.6861C135.647 78.0384 136.012 78.5498 136.265 79.2202C136.52 79.8878 136.648 80.6946 136.648 81.6407C136.648 82.5924 136.522 83.4049 136.269 84.0782C136.016 84.7486 135.651 85.2614 135.174 85.6165C134.696 85.9688 134.123 86.1449 133.452 86.1449ZM133.452 85.0071C134.043 85.0071 134.505 84.7188 134.837 84.1421C135.172 83.5654 135.34 82.7316 135.34 81.6407C135.34 80.9162 135.263 80.304 135.11 79.804C134.959 79.3012 134.742 78.9205 134.458 78.662C134.176 78.4006 133.841 78.2699 133.452 78.2699C132.864 78.2699 132.402 78.5597 132.067 79.1392C131.732 79.7188 131.563 80.5526 131.56 81.6407C131.56 82.3679 131.635 82.983 131.786 83.4858C131.939 83.9858 132.157 84.3651 132.438 84.6236C132.719 84.8793 133.057 85.0071 133.452 85.0071ZM139.349 83.7799L139.34 82.2245H139.562L142.17 79.4546H143.695L140.721 82.608H140.521L139.349 83.7799ZM138.177 86V77.2728H139.451V86H138.177ZM142.31 86L139.967 82.8893L140.844 81.9986L143.874 86H142.31Z" fill="#D1D1D1"/>
</svg>
