<svg width="164" height="19" viewBox="0 0 164 19" fill="none" xmlns="http://www.w3.org/2000/svg">
<path d="M12.3137 1.08V4.824H5.54566V7.8H10.5377V11.376H5.54566V18H0.841658V1.08H12.3137ZM20.9188 1.08V18H16.2148V1.08H20.9188ZM41.1896 18H36.4856L30.2216 8.544V18H25.5176V1.08H30.2216L36.4856 10.656V1.08H41.1896V18ZM50.4932 4.848V7.608H55.8932V11.184H50.4932V14.232H56.6132V18H45.7892V1.08H56.6132V4.848H50.4932ZM64.0496 6.744C64.5136 6.104 65.1456 5.584 65.9456 5.184C66.7616 4.768 67.6656 4.56 68.6576 4.56C69.8256 4.56 70.8816 4.84 71.8256 5.4C72.7696 5.96 73.5136 6.76 74.0576 7.8C74.6016 8.824 74.8736 10 74.8736 11.328C74.8736 12.656 74.6016 13.848 74.0576 14.904C73.5136 15.944 72.7616 16.76 71.8016 17.352C70.8576 17.928 69.8096 18.216 68.6576 18.216C67.6336 18.216 66.7216 18.016 65.9216 17.616C65.1376 17.216 64.5136 16.704 64.0496 16.08V18H61.3136V0.24H64.0496V6.744ZM72.0896 11.328C72.0896 10.416 71.8976 9.632 71.5136 8.976C71.1456 8.304 70.6496 7.8 70.0256 7.464C69.4176 7.112 68.7616 6.936 68.0576 6.936C67.3696 6.936 66.7136 7.112 66.0896 7.464C65.4816 7.816 64.9856 8.328 64.6016 9C64.2336 9.672 64.0496 10.464 64.0496 11.376C64.0496 12.288 64.2336 13.088 64.6016 13.776C64.9856 14.448 65.4816 14.96 66.0896 15.312C66.7136 15.664 67.3696 15.84 68.0576 15.84C68.7616 15.84 69.4176 15.664 70.0256 15.312C70.6496 14.944 71.1456 14.416 71.5136 13.728C71.8976 13.04 72.0896 12.24 72.0896 11.328ZM78.5872 11.328C78.5872 10 78.8592 8.824 79.4032 7.8C79.9632 6.776 80.7152 5.984 81.6592 5.424C82.6192 4.848 83.6752 4.56 84.8272 4.56C85.8672 4.56 86.7712 4.768 87.5392 5.184C88.3232 5.584 88.9472 6.088 89.4112 6.696V4.776H92.1712V18H89.4112V16.032C88.9472 16.656 88.3152 17.176 87.5152 17.592C86.7152 18.008 85.8032 18.216 84.7792 18.216C83.6432 18.216 82.6032 17.928 81.6592 17.352C80.7152 16.76 79.9632 15.944 79.4032 14.904C78.8592 13.848 78.5872 12.656 78.5872 11.328ZM89.4112 11.376C89.4112 10.464 89.2192 9.672 88.8352 9C88.4672 8.328 87.9792 7.816 87.3712 7.464C86.7632 7.112 86.1072 6.936 85.4032 6.936C84.6992 6.936 84.0432 7.112 83.4352 7.464C82.8272 7.8 82.3312 8.304 81.9472 8.976C81.5792 9.632 81.3952 10.416 81.3952 11.328C81.3952 12.24 81.5792 13.04 81.9472 13.728C82.3312 14.416 82.8272 14.944 83.4352 15.312C84.0592 15.664 84.7152 15.84 85.4032 15.84C86.1072 15.84 86.7632 15.664 87.3712 15.312C87.9792 14.96 88.4672 14.448 88.8352 13.776C89.2192 13.088 89.4112 12.288 89.4112 11.376ZM104.357 4.56C105.397 4.56 106.325 4.776 107.141 5.208C107.973 5.64 108.621 6.28 109.085 7.128C109.549 7.976 109.781 9 109.781 10.2V18H107.069V10.608C107.069 9.424 106.773 8.52 106.181 7.896C105.589 7.256 104.781 6.936 103.757 6.936C102.733 6.936 101.917 7.256 101.309 7.896C100.717 8.52 100.421 9.424 100.421 10.608V18H97.6848V4.776H100.421V6.288C100.869 5.744 101.437 5.32 102.125 5.016C102.829 4.712 103.573 4.56 104.357 4.56ZM120.423 11.4L126.519 18H122.823L117.927 12.312V18H115.191V0.24H117.927V10.56L122.727 4.776H126.519L120.423 11.4ZM131.504 18.168C131.008 18.168 130.592 18 130.256 17.664C129.92 17.328 129.752 16.912 129.752 16.416C129.752 15.92 129.92 15.504 130.256 15.168C130.592 14.832 131.008 14.664 131.504 14.664C131.984 14.664 132.392 14.832 132.728 15.168C133.064 15.504 133.232 15.92 133.232 16.416C133.232 16.912 133.064 17.328 132.728 17.664C132.392 18 131.984 18.168 131.504 18.168ZM142.357 1.08V18H137.653V1.08H142.357ZM155.068 18.168C153.484 18.168 152.028 17.8 150.7 17.064C149.372 16.312 148.316 15.28 147.532 13.968C146.764 12.64 146.38 11.144 146.38 9.48C146.38 7.816 146.764 6.328 147.532 5.016C148.316 3.688 149.372 2.656 150.7 1.92C152.028 1.184 153.484 0.816 155.068 0.816C156.668 0.816 158.124 1.184 159.436 1.92C160.764 2.656 161.812 3.688 162.58 5.016C163.348 6.328 163.732 7.816 163.732 9.48C163.732 11.144 163.348 12.64 162.58 13.968C161.812 15.28 160.764 16.312 159.436 17.064C158.108 17.8 156.652 18.168 155.068 18.168ZM155.068 13.8C156.268 13.8 157.212 13.408 157.9 12.624C158.604 11.84 158.956 10.792 158.956 9.48C158.956 8.136 158.604 7.08 157.9 6.312C157.212 5.528 156.268 5.136 155.068 5.136C153.852 5.136 152.9 5.528 152.212 6.312C151.524 7.08 151.18 8.136 151.18 9.48C151.18 10.808 151.524 11.864 152.212 12.648C152.9 13.416 153.852 13.8 155.068 13.8Z" fill="white"/>
</svg>
